# Blender v2.79 (sub 0) OBJ File: ''
# www.blender.org
mtllib Left-GBUobj.mtl
o missile_L_pivot
v -0.036870 -0.016770 -0.005510
v -0.036730 -0.016220 -0.005510
v -0.035790 -0.016770 -0.005730
v -0.036330 -0.015830 -0.005510
v -0.035790 -0.015680 -0.005510
v -0.035250 -0.015830 -0.005510
v -0.034850 -0.016220 -0.005510
v -0.034700 -0.016770 -0.005520
v -0.034850 -0.017310 -0.005520
v -0.035250 -0.017710 -0.005520
v -0.035790 -0.017850 -0.005520
v -0.036330 -0.017710 -0.005520
v -0.036730 -0.017310 -0.005510
v -0.037420 -0.015820 -0.004930
v -0.037670 -0.016760 -0.004930
v -0.036730 -0.015130 -0.004930
v -0.035790 -0.014880 -0.004930
v -0.034850 -0.015130 -0.004930
v -0.034160 -0.015820 -0.004940
v -0.033910 -0.016760 -0.004940
v -0.034160 -0.017700 -0.004940
v -0.034850 -0.018390 -0.004950
v -0.035790 -0.018640 -0.004940
v -0.036730 -0.018390 -0.004940
v -0.037420 -0.017700 -0.004940
v -0.037780 -0.015610 -0.004130
v -0.038090 -0.016760 -0.004140
v -0.036940 -0.014760 -0.004130
v -0.035790 -0.014460 -0.004130
v -0.034640 -0.014760 -0.004140
v -0.033800 -0.015610 -0.004140
v -0.033490 -0.016760 -0.004150
v -0.033800 -0.017910 -0.004160
v -0.034640 -0.018750 -0.004160
v -0.035790 -0.019060 -0.004160
v -0.036940 -0.018750 -0.004150
v -0.037780 -0.017910 -0.004150
v -0.033080 -0.016750 -0.002820
v -0.033440 -0.015390 -0.002810
v -0.034430 -0.014400 -0.002810
v -0.035790 -0.014030 -0.002800
v -0.033100 -0.015170 -0.000250
v -0.032680 -0.016730 -0.000260
v -0.034240 -0.014030 -0.000250
v -0.035790 -0.013620 -0.000240
v -0.032690 -0.016750 0.045670
v -0.033110 -0.015200 0.045680
v -0.034250 -0.014050 0.045680
v -0.035810 -0.013640 0.045680
v -0.038140 -0.015390 -0.002800
v -0.038500 -0.016750 -0.002810
v -0.037150 -0.014400 -0.002800
v -0.038490 -0.015170 -0.000240
v -0.038910 -0.016730 -0.000250
v -0.037350 -0.014030 -0.000240
v -0.038510 -0.015200 0.045690
v -0.038930 -0.016750 0.045690
v -0.037370 -0.014060 0.045690
v -0.038140 -0.018110 -0.002810
v -0.037150 -0.019100 -0.002820
v -0.035790 -0.019460 -0.002830
v -0.038490 -0.018290 -0.000260
v -0.037350 -0.019430 -0.000260
v -0.035790 -0.019850 -0.000270
v -0.038510 -0.018310 0.045690
v -0.037370 -0.019450 0.045690
v -0.035810 -0.019870 0.045680
v -0.034430 -0.019100 -0.002830
v -0.033440 -0.018110 -0.002830
v -0.034240 -0.019430 -0.000270
v -0.033100 -0.018290 -0.000270
v -0.034250 -0.019450 0.045680
v -0.033110 -0.018310 0.045680
v -0.037370 -0.016750 0.035020
v -0.037160 -0.017520 0.035020
v -0.037160 -0.015990 0.035020
v -0.036610 -0.018080 0.035020
v -0.035840 -0.018280 0.035010
v -0.035840 -0.015230 0.035010
v -0.036610 -0.015430 0.035020
v -0.035080 -0.015430 0.035010
v -0.035080 -0.018080 0.035010
v -0.034520 -0.015990 0.035010
v -0.034520 -0.017520 0.035010
v -0.034310 -0.016750 0.035010
v -0.037570 -0.017770 0.044870
v -0.037840 -0.016750 0.044870
v -0.037570 -0.015740 0.044870
v -0.035810 -0.018780 0.044860
v -0.036830 -0.018510 0.044870
v -0.036830 -0.015000 0.044870
v -0.035810 -0.014730 0.044860
v -0.034800 -0.015000 0.044860
v -0.034800 -0.018510 0.044860
v -0.034060 -0.015740 0.044860
v -0.034060 -0.017770 0.044860
v -0.033790 -0.016750 0.044860
v -0.038640 -0.013740 0.002900
v -0.037490 -0.014780 0.002400
v -0.037760 -0.015060 0.002400
v -0.038800 -0.013910 0.002900
v -0.038640 -0.013740 0.005570
v -0.038800 -0.013910 0.005570
v -0.037760 -0.015060 0.005570
v -0.037490 -0.014780 0.005570
v -0.037840 -0.014470 0.027040
v -0.037500 -0.014780 0.027040
v -0.037770 -0.015060 0.027040
v -0.038090 -0.014720 0.027040
v -0.037780 -0.015060 0.045340
v -0.037510 -0.014780 0.045340
v -0.038410 -0.013940 0.045340
v -0.038630 -0.014150 0.045340
v -0.039680 -0.013020 0.031270
v -0.039540 -0.012880 0.031270
v -0.039550 -0.012880 0.043230
v -0.039680 -0.013020 0.043230
v -0.032760 -0.013890 0.002890
v -0.033810 -0.015040 0.002400
v -0.034080 -0.014770 0.002400
v -0.032930 -0.013730 0.002890
v -0.032760 -0.013890 0.005560
v -0.032930 -0.013720 0.005560
v -0.034080 -0.014760 0.005560
v -0.033800 -0.015040 0.005560
v -0.033460 -0.014660 0.027030
v -0.033770 -0.015000 0.027030
v -0.034050 -0.014720 0.027030
v -0.033710 -0.014410 0.027030
v -0.034020 -0.014690 0.045330
v -0.033750 -0.014970 0.045330
v -0.032900 -0.014060 0.045330
v -0.033120 -0.013850 0.045330
v -0.032000 -0.012810 0.031260
v -0.031860 -0.012950 0.031260
v -0.031850 -0.012930 0.043220
v -0.031980 -0.012790 0.043220
v -0.032910 -0.019760 0.002890
v -0.034070 -0.018720 0.002400
v -0.033790 -0.018450 0.002400
v -0.032750 -0.019600 0.002890
v -0.032900 -0.019760 0.005560
v -0.032740 -0.019600 0.005560
v -0.033780 -0.018450 0.005560
v -0.034060 -0.018720 0.005560
v -0.033650 -0.019040 0.027030
v -0.033990 -0.018720 0.027030
v -0.033710 -0.018450 0.027030
v -0.033400 -0.018790 0.027030
v -0.033660 -0.018450 0.045330
v -0.033930 -0.018720 0.045330
v -0.033020 -0.019570 0.045330
v -0.032810 -0.019360 0.045330
v -0.031800 -0.020490 0.031260
v -0.031930 -0.020630 0.031260
v -0.031900 -0.020630 0.043220
v -0.031760 -0.020490 0.043220
v -0.038790 -0.019620 0.002900
v -0.037750 -0.018460 0.002400
v -0.037470 -0.018740 0.002400
v -0.038620 -0.019780 0.002900
v -0.038780 -0.019620 0.005570
v -0.038620 -0.019790 0.005570
v -0.037470 -0.018740 0.005570
v -0.037740 -0.018470 0.005570
v -0.038030 -0.018850 0.027040
v -0.037710 -0.018510 0.027040
v -0.037440 -0.018780 0.027040
v -0.037780 -0.019100 0.027040
v -0.037410 -0.018810 0.045340
v -0.037690 -0.018540 0.045340
v -0.038530 -0.019450 0.045340
v -0.038320 -0.019660 0.045340
v -0.039470 -0.020700 0.031270
v -0.039610 -0.020560 0.031270
v -0.039600 -0.020580 0.043230
v -0.039460 -0.020720 0.043230
vt 0.229890 0.534340
vt 0.212310 0.544490
vt 0.202140 0.506600
vt 0.192000 0.544490
vt 0.174420 0.534340
vt 0.164270 0.516760
vt 0.164270 0.496460
vt 0.174420 0.478880
vt 0.192000 0.468730
vt 0.212310 0.468730
vt 0.229890 0.478880
vt 0.240040 0.496460
vt 0.240040 0.516760
vt 0.219770 0.572260
vt 0.250230 0.554680
vt 0.184610 0.572260
vt 0.154150 0.554680
vt 0.136570 0.524230
vt 0.136570 0.489070
vt 0.154150 0.458620
vt 0.184610 0.441040
vt 0.219780 0.441040
vt 0.250230 0.458620
vt 0.267810 0.489070
vt 0.267810 0.524230
vt 0.223760 0.587000
vt 0.261040 0.565480
vt 0.180720 0.587000
vt 0.143440 0.565490
vt 0.121920 0.528220
vt 0.121920 0.485180
vt 0.143440 0.447910
vt 0.180720 0.426390
vt 0.223760 0.426390
vt 0.261040 0.447910
vt 0.282560 0.485180
vt 0.282560 0.528210
vt 0.037680 0.723990
vt 0.001170 0.718220
vt 0.001180 0.697630
vt 0.037690 0.699710
vt 0.001200 0.673850
vt 0.037730 0.671680
vt 0.001240 0.653260
vt 0.037770 0.647390
vt 0.107930 0.701700
vt 0.107920 0.729570
vt 0.107970 0.669510
vt 0.108020 0.641640
vt 1.000060 0.728450
vt 1.000070 0.700580
vt 1.000110 0.668390
vt 1.000160 0.640520
vt 0.037850 0.937710
vt 0.001310 0.939880
vt 0.001320 0.919290
vt 0.037860 0.913430
vt 0.037770 0.990030
vt 0.001240 0.984250
vt 0.001280 0.963660
vt 0.037810 0.965750
vt 0.108100 0.935550
vt 0.108120 0.907670
vt 0.108020 0.995600
vt 0.108070 0.967730
vt 1.000240 0.934430
vt 1.000260 0.906550
vt 1.000160 0.994480
vt 1.000210 0.966610
vt 0.001320 0.893810
vt 0.001310 0.873220
vt 0.037850 0.875400
vt 0.037860 0.899680
vt 0.001280 0.849440
vt 0.037810 0.847360
vt 0.001240 0.828850
vt 0.037770 0.823080
vt 0.108100 0.877560
vt 0.108120 0.905430
vt 0.108070 0.845380
vt 0.108020 0.817500
vt 1.000240 0.878680
vt 1.000210 0.846490
vt 1.000160 0.818620
vt 0.001240 0.805880
vt 0.001200 0.785290
vt 0.037730 0.787470
vt 0.037770 0.811750
vt 0.001180 0.761520
vt 0.037690 0.759430
vt 0.001170 0.740920
vt 0.037680 0.735150
vt 0.107970 0.789630
vt 0.107930 0.757440
vt 1.000110 0.790750
vt 1.000070 0.758560
vt 1.000060 0.730690
vt 0.049690 0.594430
vt 0.041800 0.580770
vt 0.063360 0.602320
vt 0.041800 0.564990
vt 0.049690 0.551320
vt 0.092810 0.594430
vt 0.079140 0.602320
vt 0.100700 0.580770
vt 0.063360 0.543430
vt 0.100700 0.564990
vt 0.079140 0.543430
vt 0.092810 0.551320
vt 0.027520 0.616600
vt 0.011430 0.588730
vt 0.032430 0.583110
vt 0.042900 0.601230
vt 0.055400 0.632690
vt 0.061010 0.611690
vt 0.011430 0.556540
vt 0.027520 0.528670
vt 0.042900 0.544080
vt 0.032430 0.562190
vt 0.115470 0.616600
vt 0.087590 0.632690
vt 0.081940 0.611690
vt 0.100060 0.601230
vt 0.131560 0.588730
vt 0.110520 0.583110
vt 0.055400 0.512580
vt 0.061010 0.533620
vt 0.131560 0.556540
vt 0.110520 0.562200
vt 0.087590 0.512580
vt 0.081940 0.533620
vt 0.115470 0.528670
vt 0.100060 0.544080
vt 0.275490 0.633970
vt 0.257730 0.578240
vt 0.257740 0.578240
vt 0.275510 0.633970
vt 0.371590 0.634090
vt 0.371600 0.634090
vt 0.371540 0.578380
vt 0.371530 0.578380
vt 0.337650 0.546950
vt 0.337630 0.530240
vt 0.337640 0.530240
vt 0.337660 0.546950
vt 0.995160 0.531060
vt 0.995140 0.531060
vt 0.995190 0.575630
vt 0.995210 0.575630
vt 0.489490 0.630710
vt 0.489480 0.630710
vt 0.919390 0.631250
vt 0.919400 0.631250
vt 0.275490 0.633970
vt 0.257730 0.578240
vt 0.257740 0.578240
vt 0.275510 0.633970
vt 0.371590 0.634090
vt 0.371600 0.634090
vt 0.371540 0.578380
vt 0.371530 0.578380
vt 0.337650 0.546950
vt 0.337630 0.530240
vt 0.337640 0.530240
vt 0.337660 0.546950
vt 0.995160 0.531060
vt 0.995140 0.531060
vt 0.995190 0.575630
vt 0.995210 0.575630
vt 0.489490 0.630710
vt 0.489480 0.630710
vt 0.919390 0.631250
vt 0.919400 0.631250
vt 0.275490 0.633970
vt 0.257730 0.578240
vt 0.257740 0.578240
vt 0.275510 0.633970
vt 0.371590 0.634090
vt 0.371600 0.634090
vt 0.371540 0.578380
vt 0.371530 0.578380
vt 0.337650 0.546950
vt 0.337630 0.530240
vt 0.337640 0.530240
vt 0.337660 0.546950
vt 0.995160 0.531060
vt 0.995140 0.531060
vt 0.995190 0.575630
vt 0.995210 0.575630
vt 0.489490 0.630710
vt 0.489480 0.630710
vt 0.919390 0.631250
vt 0.919400 0.631250
vt 0.275490 0.633970
vt 0.257730 0.578240
vt 0.257740 0.578240
vt 0.275510 0.633970
vt 0.371590 0.634090
vt 0.371600 0.634090
vt 0.371540 0.578380
vt 0.371530 0.578380
vt 0.337650 0.546950
vt 0.337630 0.530240
vt 0.337640 0.530240
vt 0.337660 0.546950
vt 0.995160 0.531060
vt 0.995140 0.531060
vt 0.995190 0.575630
vt 0.995210 0.575630
vt 0.489490 0.630710
vt 0.489480 0.630710
vt 0.919390 0.631250
vt 0.919400 0.631250
vn -0.4664 0.0041 -0.8845
vn -0.3644 0.2501 -0.8971
vn -0.0025 0.0045 -1.0000
vn -0.1925 0.3979 -0.8970
vn -0.0024 0.4007 -0.9162
vn 0.1883 0.3983 -0.8977
vn 0.3607 0.2508 -0.8983
vn 0.4634 0.0041 -0.8861
vn 0.3627 -0.2440 -0.8994
vn 0.1901 -0.3935 -0.8994
vn -0.0025 -0.3958 -0.9183
vn -0.1943 -0.3930 -0.8988
vn -0.3663 -0.2432 -0.8982
vn -0.6449 0.3892 -0.6578
vn -0.8018 0.0025 -0.5976
vn -0.3651 0.6583 -0.6583
vn -0.0007 0.7007 -0.7135
vn 0.3624 0.6594 -0.6587
vn 0.6436 0.3903 -0.6583
vn 0.8015 0.0026 -0.5979
vn 0.6471 -0.3867 -0.6570
vn 0.3659 -0.6597 -0.6565
vn -0.0024 -0.7017 -0.7124
vn -0.3684 -0.6586 -0.6561
vn -0.6485 -0.3856 -0.6564
vn -0.7962 0.4644 -0.3879
vn -0.9344 0.0015 -0.3563
vn -0.4578 0.7993 -0.3892
vn 0.0355 0.9151 -0.4016
vn 0.5288 0.7553 -0.3872
vn 0.8362 0.3902 -0.3853
vn 0.9230 0.0016 -0.3848
vn 0.8389 -0.3882 -0.3816
vn 0.5321 -0.7567 -0.3799
vn 0.0359 -0.9189 -0.3930
vn -0.4609 -0.8013 -0.3815
vn -0.7993 -0.4629 -0.3833
vn 0.9743 0.0009 -0.2253
vn 0.7959 0.5608 -0.2280
vn 0.4088 0.8831 -0.2302
vn -0.0517 0.9680 -0.2456
vn 0.9040 0.4200 -0.0793
vn 0.9970 0.0003 -0.0771
vn 0.5729 0.8157 -0.0803
vn 0.0381 0.9950 -0.0921
vn 1.0000 0.0000 0.0004
vn 0.8181 0.5751 0.0006
vn 0.4210 0.9071 0.0006
vn -0.0890 0.9960 0.0005
vn -0.8419 0.4882 -0.2298
vn -0.9791 0.0008 -0.2034
vn -0.4852 0.8432 -0.2316
vn -0.8629 0.4991 -0.0795
vn -0.9986 0.0002 -0.0524
vn -0.4979 0.8635 -0.0805
vn -0.9071 0.4210 -0.0001
vn -1.0000 0.0003 -0.0004
vn -0.5750 0.8181 0.0002
vn -0.8439 -0.4875 -0.2240
vn -0.4872 -0.8447 -0.2216
vn -0.0519 -0.9708 -0.2344
vn -0.8634 -0.4986 -0.0771
vn -0.4984 -0.8636 -0.0758
vn 0.0382 -0.9956 -0.0854
vn -0.9071 -0.4210 -0.0006
vn -0.5751 -0.8181 -0.0006
vn -0.0889 -0.9960 0.0001
vn 0.4106 -0.8849 -0.2197
vn 0.7981 -0.5605 -0.2213
vn 0.5734 -0.8158 -0.0747
vn 0.9046 -0.4196 -0.0756
vn 0.4210 -0.9071 -0.0003
vn 0.8181 -0.5750 -0.0000
vn 0.0039 -0.0002 1.0000
vn 0.0035 -0.0001 1.0000
vn 0.0038 -0.0002 1.0000
vn 0.0029 0.0000 1.0000
vn 0.0030 0.0000 1.0000
vn 0.0032 -0.0000 1.0000
vn 0.5952 0.1590 0.7877
vn 0.5953 0.1590 0.7876
vn 0.5952 -0.1590 0.7877
vn 0.5953 -0.1589 0.7876
vn 0.5953 -0.1589 0.7877
vn 0.1613 0.5930 0.7889
vn 0.1614 -0.5931 0.7888
vn 0.4364 0.4341 0.7881
vn 0.4364 0.4343 0.7880
vn 0.4364 -0.4342 0.7880
vn 0.4364 -0.4341 0.7881
vn 0.4365 -0.4342 0.7880
vn -0.1568 -0.5928 0.7900
vn -0.1566 -0.5930 0.7898
vn -0.1565 0.5930 0.7898
vn -0.1564 0.5930 0.7899
vn -0.4319 -0.4340 0.7906
vn -0.4318 -0.4341 0.7906
vn -0.4319 -0.4339 0.7907
vn -0.4318 0.4341 0.7906
vn -0.4317 0.4341 0.7907
vn -0.4319 0.4341 0.7906
vn -0.5906 0.1589 0.7912
vn -0.5906 0.1588 0.7912
vn -0.5906 -0.1590 0.7912
vn -0.5906 -0.1590 0.7911
vn -0.5906 -0.1589 0.7912
vn 0.9649 0.2587 0.0459
vn 0.9648 0.2588 0.0458
vn 0.9649 0.2586 0.0458
vn 0.9649 -0.2586 0.0458
vn 0.9649 -0.2587 0.0459
vn 0.9649 -0.2587 0.0458
vn 0.2587 0.9648 0.0480
vn 0.2586 0.9648 0.0479
vn 0.2588 0.9647 0.0480
vn 0.2586 -0.9648 0.0480
vn 0.2587 -0.9648 0.0480
vn 0.2585 -0.9648 0.0480
vn 0.7063 0.7063 0.0466
vn 0.7064 0.7062 0.0466
vn 0.7062 0.7065 0.0466
vn 0.7064 -0.7063 0.0466
vn 0.7065 -0.7062 0.0466
vn 0.7063 -0.7064 0.0466
vn -0.2584 -0.9648 0.0495
vn -0.2585 -0.9647 0.0495
vn -0.2581 -0.9648 0.0495
vn -0.2585 0.9647 0.0495
vn -0.2583 0.9648 0.0495
vn -0.2586 0.9647 0.0495
vn -0.7062 -0.7062 0.0509
vn -0.7062 0.7062 0.0509
vn -0.9647 0.2583 0.0517
vn -0.9647 0.2583 0.0516
vn -0.9647 -0.2584 0.0516
vn -0.9646 -0.2584 0.0516
vn -0.9647 -0.2583 0.0516
vn -0.2166 0.2141 -0.9525
vn -0.2167 0.2141 -0.9525
vn -0.7072 0.7070 -0.0003
vn -0.7072 0.7070 -0.0000
vn 0.0034 0.0003 1.0000
vn 0.0028 -0.0001 1.0000
vn 0.0040 0.0007 1.0000
vn -0.0028 -0.0001 -1.0000
vn -0.0026 -0.0001 -1.0000
vn -0.0029 -0.0001 -1.0000
vn 0.0029 -0.0001 1.0000
vn 0.0028 -0.0002 1.0000
vn 0.0031 0.0000 1.0000
vn 0.6707 0.7417 -0.0000
vn -0.7415 -0.6709 -0.0002
vn -0.7414 -0.6710 -0.0003
vn -0.7417 -0.6707 0.0000
vn -0.6197 0.6192 -0.4822
vn -0.6198 0.6192 -0.4822
vn -0.6848 0.6849 -0.2491
vn -0.6845 0.6851 -0.2491
vn -0.6712 0.6726 0.3116
vn -0.6714 0.6724 0.3116
vn -0.5687 0.5706 0.5924
vn -0.5688 0.5705 0.5924
vn -0.7313 -0.6821 -0.0002
vn -0.7312 -0.6822 -0.0003
vn -0.7312 -0.6821 -0.0003
vn -0.7311 -0.6822 -0.0003
vn -0.7310 -0.6824 -0.0003
vn 0.6822 0.7312 0.0003
vn 0.6821 0.7313 0.0003
vn 0.6823 0.7310 0.0003
vn 0.2121 0.2160 -0.9531
vn 0.2123 0.2157 -0.9531
vn 0.2119 0.2163 -0.9531
vn 0.7064 0.7078 -0.0022
vn 0.0010 -0.0013 1.0000
vn 0.0011 -0.0014 1.0000
vn 0.0009 -0.0012 1.0000
vn -0.0013 0.0012 -1.0000
vn -0.0013 0.0013 -1.0000
vn 0.0012 -0.0015 1.0000
vn 0.0012 -0.0014 1.0000
vn 0.7415 -0.6710 0.0002
vn 0.7414 -0.6710 0.0001
vn -0.6709 0.7416 -0.0005
vn -0.6709 0.7415 -0.0004
vn -0.6709 0.7416 -0.0004
vn 0.6188 0.6189 -0.4839
vn 0.6183 0.6192 -0.4840
vn 0.6849 0.6840 -0.2510
vn 0.6852 0.6837 -0.2510
vn 0.6736 0.6710 0.3098
vn 0.6738 0.6708 0.3098
vn 0.5720 0.5689 0.5909
vn 0.5718 0.5692 0.5909
vn -0.6822 0.7312 -0.0003
vn -0.6821 0.7312 -0.0004
vn -0.6822 0.7311 -0.0004
vn -0.6821 0.7313 -0.0004
vn 0.7311 -0.6823 0.0002
vn 0.7312 -0.6822 0.0002
vn 0.7310 -0.6824 0.0002
vn 0.2139 -0.2141 -0.9531
vn 0.2141 -0.2140 -0.9531
vn 0.2137 -0.2143 -0.9531
vn 0.7071 -0.7071 -0.0026
vn -0.0004 -0.0002 1.0000
vn -0.0000 0.0000 1.0000
vn -0.0010 -0.0005 1.0000
vn -0.0000 0.0000 -1.0000
vn 0.0008 0.0003 -1.0000
vn -0.6709 -0.7416 0.0021
vn -0.6708 -0.7416 0.0021
vn 0.7417 0.6708 -0.0024
vn 0.7416 0.6708 -0.0024
vn 0.6191 -0.6185 -0.4839
vn 0.6847 -0.6843 -0.2510
vn 0.6723 -0.6723 0.3098
vn 0.6722 -0.6724 0.3098
vn 0.5703 -0.5706 0.5909
vn 0.5705 -0.5705 0.5909
vn 0.7313 0.6821 -0.0023
vn 0.7312 0.6822 -0.0023
vn 0.7312 0.6821 -0.0023
vn 0.7311 0.6823 -0.0023
vn 0.7310 0.6824 -0.0023
vn -0.6822 -0.7312 0.0021
vn -0.6821 -0.7312 0.0021
vn -0.6821 -0.7313 0.0021
vn -0.6820 -0.7313 0.0021
vn -0.2152 -0.2155 -0.9525
vn -0.2149 -0.2159 -0.9525
vn -0.2155 -0.2150 -0.9525
vn -0.7075 -0.7067 -0.0003
vn -0.7079 -0.7064 -0.0003
vn -0.7071 -0.7071 0.0000
vn 0.0015 0.0014 1.0000
vn -0.0015 -0.0016 -1.0000
vn -0.0015 -0.0014 -1.0000
vn -0.0015 -0.0018 -1.0000
vn 0.0015 0.0017 1.0000
vn 0.0016 0.0016 1.0000
vn 0.0014 0.0019 1.0000
vn -0.7416 0.6709 0.0022
vn -0.7415 0.6709 0.0022
vn 0.6708 -0.7416 -0.0022
vn 0.6709 -0.7416 -0.0022
vn -0.6196 -0.6194 -0.4821
vn -0.6194 -0.6194 -0.4823
vn -0.6852 -0.6844 -0.2492
vn -0.6856 -0.6840 -0.2491
vn -0.6723 -0.6715 0.3115
vn -0.6722 -0.6717 0.3115
vn -0.5699 -0.5694 0.5924
vn -0.5699 -0.5695 0.5923
vn 0.6821 -0.7313 -0.0022
vn 0.6822 -0.7312 -0.0022
vn 0.6822 -0.7311 -0.0022
vn 0.6821 -0.7312 -0.0022
vn -0.7313 0.6821 0.0022
vn -0.7312 0.6821 0.0022
vn -0.7313 0.6820 0.0022
vn -0.7314 0.6819 0.0022
usemtl _6___Default
s 1
f 1/1/1 2/2/2 3/3/3
f 2/2/2 4/4/4 3/3/3
f 4/4/4 5/5/5 3/3/3
f 3/3/3 5/5/5 6/6/6
f 3/3/3 6/6/6 7/7/7
f 3/3/3 7/7/7 8/8/8
f 9/9/9 3/3/3 8/8/8
f 10/10/10 3/3/3 9/9/9
f 11/11/11 3/3/3 10/10/10
f 11/11/11 12/12/12 3/3/3
f 12/12/12 13/13/13 3/3/3
f 13/13/13 1/1/1 3/3/3
f 14/14/14 2/2/2 1/1/1 15/15/15
f 16/16/16 4/4/4 2/2/2 14/14/14
f 17/17/17 5/5/5 4/4/4 16/16/16
f 17/17/17 18/18/18 6/6/6 5/5/5
f 18/18/18 19/19/19 7/7/7 6/6/6
f 19/19/19 20/20/20 8/8/8 7/7/7
f 8/8/8 20/20/20 21/21/21 9/9/9
f 9/9/9 21/21/21 22/22/22 10/10/10
f 10/10/10 22/22/22 23/23/23 11/11/11
f 12/12/12 11/11/11 23/23/23 24/24/24
f 13/13/13 12/12/12 24/24/24 25/25/25
f 1/1/1 13/13/13 25/25/25 15/15/15
f 26/26/26 14/14/14 15/15/15 27/27/27
f 28/28/28 16/16/16 14/14/14 26/26/26
f 29/29/29 17/17/17 16/16/16 28/28/28
f 29/29/29 30/30/30 18/18/18 17/17/17
f 30/30/30 31/31/31 19/19/19 18/18/18
f 31/31/31 32/32/32 20/20/20 19/19/19
f 20/20/20 32/32/32 33/33/33 21/21/21
f 21/21/21 33/33/33 34/34/34 22/22/22
f 22/22/22 34/34/34 35/35/35 23/23/23
f 24/24/24 23/23/23 35/35/35 36/36/36
f 25/25/25 24/24/24 36/36/36 37/37/37
f 15/15/15 25/25/25 37/37/37 27/27/27
f 38/38/38 32/39/32 31/40/31 39/41/39
f 39/41/39 31/40/31 30/42/30 40/43/40
f 40/43/40 30/42/30 29/44/29 41/45/41
f 42/46/42 43/47/43 38/38/38 39/41/39
f 44/48/44 42/46/42 39/41/39 40/43/40
f 45/49/45 44/48/44 40/43/40 41/45/41
f 46/50/46 43/47/43 42/46/42 47/51/47
f 47/51/47 42/46/42 44/48/44 48/52/48
f 48/52/48 44/48/44 45/49/45 49/53/49
f 50/54/50 26/55/26 27/56/27 51/57/51
f 41/58/41 29/59/29 28/60/28 52/61/52
f 52/61/52 28/60/28 26/55/26 50/54/50
f 53/62/53 50/54/50 51/57/51 54/63/54
f 45/64/45 41/58/41 52/61/52 55/65/55
f 55/65/55 52/61/52 50/54/50 53/62/53
f 56/66/56 53/62/53 54/63/54 57/67/57
f 49/68/49 45/64/45 55/65/55 58/69/58
f 58/69/58 55/65/55 53/62/53 56/66/56
f 27/70/27 37/71/37 59/72/59 51/73/51
f 37/71/37 36/74/36 60/75/60 59/72/59
f 36/74/36 35/76/35 61/77/61 60/75/60
f 51/73/51 59/72/59 62/78/62 54/79/54
f 59/72/59 60/75/60 63/80/63 62/78/62
f 60/75/60 61/77/61 64/81/64 63/80/63
f 54/79/54 62/78/62 65/82/65 57/67/57
f 62/78/62 63/80/63 66/83/66 65/82/65
f 63/80/63 64/81/64 67/84/67 66/83/66
f 35/85/35 34/86/34 68/87/68 61/88/61
f 34/86/34 33/89/33 69/90/69 68/87/68
f 33/89/33 32/91/32 38/92/38 69/90/69
f 68/87/68 70/93/70 64/81/64 61/88/61
f 69/90/69 71/94/71 70/93/70 68/87/68
f 38/92/38 43/47/43 71/94/71 69/90/69
f 64/81/64 70/93/70 72/95/72 67/84/67
f 70/93/70 71/94/71 73/96/73 72/95/72
f 71/94/71 43/47/43 46/97/46 73/96/73
f 74/98/74 75/99/75 76/100/76
f 77/101/77 78/102/77 79/103/78 80/104/79
f 75/99/75 77/101/77 80/104/79 76/100/76
f 81/105/77 79/103/78 78/102/77 82/106/77
f 83/107/77 81/105/77 82/106/77 84/108/77
f 84/108/77 85/109/78 83/107/77
f 57/110/80 65/111/81 86/112/80 87/113/81
f 56/114/82 57/110/83 87/113/82 88/115/84
f 66/116/85 67/117/85 89/118/85 90/119/85
f 49/120/86 58/121/86 91/122/86 92/123/86
f 65/111/87 66/116/87 90/119/87 86/112/88
f 58/121/89 56/114/90 88/115/89 91/122/91
f 48/124/92 49/120/92 92/123/92 93/125/93
f 67/117/94 72/126/94 94/127/94 89/118/95
f 47/128/96 48/124/97 93/125/96 95/129/98
f 72/126/99 73/130/100 96/131/99 94/127/101
f 73/130/102 46/132/103 97/133/102 96/131/102
f 46/132/104 47/128/105 95/129/104 97/133/106
f 87/113/107 86/112/108 75/99/107 74/98/109
f 88/115/110 87/113/111 74/98/110 76/100/112
f 90/119/113 89/118/114 78/102/113 77/101/115
f 92/123/116 91/122/117 80/104/116 79/103/118
f 86/112/119 90/119/120 77/101/119 75/99/121
f 91/122/122 88/115/123 76/100/122 80/104/124
f 93/125/125 92/123/126 79/103/125 81/105/127
f 89/118/128 94/127/129 82/106/128 78/102/130
f 95/129/131 93/125/131 81/105/131 83/107/131
f 94/127/132 96/131/132 84/108/132 82/106/132
f 96/131/133 97/133/133 85/109/133 84/108/134
f 97/133/135 95/129/136 83/107/135 85/109/137
f 98/134/138 99/135/139 100/136/138 101/137/139
f 102/138/140 98/134/140 101/137/140 103/139/141
f 104/140/142 105/141/143 102/138/142 103/139/144
f 106/142/145 107/143/146 108/144/145 109/145/147
f 110/146/148 111/147/149 112/148/148 113/149/150
f 105/141/151 99/135/151 98/134/151 102/138/151
f 101/137/152 100/136/153 104/140/152 103/139/154
f 106/142/155 109/145/156 114/150/157 115/151/158
f 116/152/159 115/151/158 114/150/157 117/153/160
f 113/149/161 112/148/162 116/152/159 117/153/160
f 114/150/163 109/145/164 113/149/165 117/153/163
f 110/146/166 113/149/165 109/145/164 108/144/167
f 106/142/168 112/148/168 111/147/168 107/143/169
f 112/148/168 106/142/168 115/151/170 116/152/170
f 118/154/171 119/155/172 120/156/171 121/157/173
f 122/158/174 118/154/174 121/157/174 123/159/174
f 124/160/175 125/161/176 122/158/175 123/159/177
f 126/162/178 127/163/179 128/164/178 129/165/178
f 130/166/180 131/167/181 132/168/180 133/169/180
f 125/161/182 119/155/182 118/154/182 122/158/183
f 121/157/184 120/156/185 124/160/184 123/159/186
f 126/162/187 129/165/188 134/170/189 135/171/190
f 136/172/191 135/171/190 134/170/189 137/173/192
f 133/169/193 132/168/194 136/172/191 137/173/192
f 134/170/195 129/165/196 133/169/197 137/173/195
f 130/166/198 133/169/197 129/165/196 128/164/198
f 126/162/199 132/168/200 131/167/199 127/163/201
f 132/168/200 126/162/199 135/171/199 136/172/199
f 138/174/202 139/175/203 140/176/202 141/177/204
f 142/178/205 138/174/205 141/177/205 143/179/205
f 144/180/206 145/181/207 142/178/206 143/179/208
f 146/182/209 147/183/209 148/184/209 149/185/210
f 150/186/207 151/187/207 152/188/207 153/189/207
f 145/181/211 139/175/212 138/174/211 142/178/211
f 141/177/213 140/176/214 144/180/213 143/179/213
f 146/182/215 149/185/215 154/190/216 155/191/216
f 156/192/217 155/191/216 154/190/216 157/193/218
f 153/189/219 152/188/220 156/192/217 157/193/218
f 154/190/221 149/185/222 153/189/221 157/193/223
f 150/186/224 153/189/221 149/185/222 148/184/225
f 146/182/226 152/188/226 151/187/227 147/183/228
f 152/188/226 146/182/226 155/191/227 156/192/229
f 158/194/230 159/195/231 160/196/230 161/197/232
f 162/198/233 158/194/234 161/197/233 163/199/235
f 164/200/236 165/201/236 162/198/236 163/199/236
f 166/202/237 167/203/238 168/204/237 169/205/239
f 170/206/240 171/207/241 172/208/240 173/209/242
f 165/201/243 159/195/244 158/194/243 162/198/243
f 161/197/245 160/196/246 164/200/245 163/199/245
f 166/202/247 169/205/248 174/210/249 175/211/250
f 176/212/251 175/211/250 174/210/249 177/213/252
f 173/209/253 172/208/254 176/212/251 177/213/252
f 174/210/255 169/205/256 173/209/257 177/213/255
f 170/206/256 173/209/257 169/205/256 168/204/258
f 166/202/259 172/208/260 171/207/261 167/203/262
f 172/208/260 166/202/259 175/211/260 176/212/261
