<?xml version="1.0" encoding="UTF-8" standalone="no"?>
<svg
   xmlns:dc="http://purl.org/dc/elements/1.1/"
   xmlns:cc="http://creativecommons.org/ns#"
   xmlns:rdf="http://www.w3.org/1999/02/22-rdf-syntax-ns#"
   xmlns:svg="http://www.w3.org/2000/svg"
   xmlns="http://www.w3.org/2000/svg"
   xmlns:sodipodi="http://sodipodi.sourceforge.net/DTD/sodipodi-0.dtd"
   xmlns:inkscape="http://www.inkscape.org/namespaces/inkscape"
   inkscape:version="1.0 (4035a4fb49, 2020-05-01)"
   sodipodi:docname="noun_Bomb_933214.svg"
   id="svg38"
   y="0px"
   x="0px"
   version="1.1"
   viewBox="0 0 32 40.00000125">
  <metadata
     id="metadata44">
    <rdf:RDF>
      <cc:Work
         rdf:about="">
        <dc:format>image/svg+xml</dc:format>
        <dc:type
           rdf:resource="http://purl.org/dc/dcmitype/StillImage" />
      </cc:Work>
    </rdf:RDF>
  </metadata>
  <defs
     id="defs42" />
  <sodipodi:namedview
     inkscape:current-layer="svg38"
     inkscape:window-maximized="1"
     inkscape:window-y="-9"
     inkscape:window-x="-9"
     inkscape:cy="29.471185"
     inkscape:cx="-13.887023"
     inkscape:zoom="10.021029"
     showgrid="false"
     id="namedview40"
     inkscape:window-height="1001"
     inkscape:window-width="1920"
     inkscape:pageshadow="2"
     inkscape:pageopacity="0"
     guidetolerance="10"
     gridtolerance="10"
     objecttolerance="10"
     borderopacity="1"
     bordercolor="#666666"
     pagecolor="#ffffff" />
  <g
     id="g32"
     transform="rotate(97.142344,464.86518,528.90361)">
    <path
       id="path2"
       d="m 12.962914,1036.1489 0.352185,5.2902 7.759673,-7.7592 -5.290557,-0.3521 z"
       style="opacity:1;fill:#000000;fill-opacity:1;stroke:none;stroke-width:1;stroke-linecap:round;stroke-linejoin:round;stroke-miterlimit:4;stroke-dasharray:none;stroke-opacity:1" />
    <path
       id="path4"
       d="m 14.022157,1042.1461 7.758258,7.7578 7.759673,-7.7592 -7.758259,-7.7578 z"
       style="opacity:1;fill:#000000;fill-opacity:1;stroke:none;stroke-width:1;stroke-linecap:round;stroke-linejoin:round;stroke-miterlimit:4;stroke-dasharray:none;stroke-opacity:1" />
    <path
       id="path6"
       d="m 22.505432,1050.593 c 2.155747,1.7976 5.364799,1.6862 7.388184,-0.337 2.023387,-2.0233 2.13482,-5.2321 0.336985,-7.3877 z"
       style="opacity:1;fill:#000000;fill-opacity:1;stroke:none;stroke-width:1;stroke-linecap:round;stroke-linejoin:round;stroke-miterlimit:4;stroke-dasharray:none;stroke-opacity:1" />
    <path
       id="path8"
       stroke="none"
       fill-rule="evenodd"
       fill="#000000"
       d="m 3.6096046,1031.4056 3.931593,3.9314 c 0.2884088,0.2894 0.723744,0.3734 1.0993329,0.2127 l 1.8463395,-0.7941 1.597738,-1.5976 -3.7921619,-3.792 z m 7.4075584,-7.4071 -2.0286894,4.6495 3.8018484,3.8016 1.577092,-1.577 0.791267,-1.8463 c 0.160502,-0.3745 0.07665,-0.8094 -0.211269,-1.0978 z" />
    <path
       id="path10"
       stroke="none"
       fill-rule="evenodd"
       fill="#000000"
       d="m 14.374483,1031.9167 -2.822078,2.8219 0.880852,0.8807 2.822079,-2.8218 z" />
    <path
       id="path12"
       d="m 10.487576,1043.5609 a 0.50001506,0.49998373 0 0 0 0.0111,0.707 l 5.279457,5.2792 a 0.50001506,0.49998373 0 1 0 0.707058,-0.707 l -5.279457,-5.2792 a 0.50001506,0.49998373 0 0 0 -0.718159,0 z"
       style="color:#000000;font-style:normal;font-variant:normal;font-weight:normal;font-stretch:normal;font-size:medium;line-height:normal;font-family:sans-serif;text-indent:0;text-align:start;text-decoration:none;text-decoration-line:none;text-decoration-style:solid;text-decoration-color:#000000;letter-spacing:normal;word-spacing:normal;text-transform:none;writing-mode:lr-tb;direction:ltr;baseline-shift:baseline;text-anchor:start;white-space:normal;clip-rule:nonzero;display:inline;overflow:visible;visibility:visible;opacity:1;isolation:auto;mix-blend-mode:normal;color-interpolation:sRGB;color-interpolation-filters:linearRGB;solid-color:#000000;solid-opacity:1;fill:#000000;fill-opacity:1;fill-rule:evenodd;stroke:none;stroke-width:1px;stroke-linecap:round;stroke-linejoin:round;stroke-miterlimit:4;stroke-dasharray:none;stroke-dashoffset:0;stroke-opacity:1;color-rendering:auto;image-rendering:auto;shape-rendering:auto;text-rendering:auto;enable-background:accumulate" />
    <path
       id="path14"
       style="opacity:1;fill:#000000;fill-opacity:1;stroke:none;stroke-width:1;stroke-linecap:round;stroke-linejoin:round;stroke-miterlimit:4;stroke-dasharray:none;stroke-opacity:1"
       d="m 9.964566,1042.3214 a 0.49883722,0.49878745 0 0 1 0,0.7053 0.49883722,0.49878745 0 0 1 -0.7055019,0 0.49883722,0.49878745 0 0 1 0,-0.7053 0.49883722,0.49878745 0 0 1 0.7055019,0 z" />
    <path
       id="path16"
       d="m 2.3743749,1040.3862 a 0.50001506,0.49998373 0 0 0 0.01103,0.707 l 5.2808708,5.2806 a 0.50001506,0.49998373 0 1 0 0.7070574,-0.7071 l -5.2808708,-5.2805 a 0.50001506,0.49998373 0 0 0 -0.7180874,0 z"
       style="color:#000000;font-style:normal;font-variant:normal;font-weight:normal;font-stretch:normal;font-size:medium;line-height:normal;font-family:sans-serif;text-indent:0;text-align:start;text-decoration:none;text-decoration-line:none;text-decoration-style:solid;text-decoration-color:#000000;letter-spacing:normal;word-spacing:normal;text-transform:none;writing-mode:lr-tb;direction:ltr;baseline-shift:baseline;text-anchor:start;white-space:normal;clip-rule:nonzero;display:inline;overflow:visible;visibility:visible;opacity:1;isolation:auto;mix-blend-mode:normal;color-interpolation:sRGB;color-interpolation-filters:linearRGB;solid-color:#000000;solid-opacity:1;fill:#000000;fill-opacity:1;fill-rule:evenodd;stroke:none;stroke-width:1px;stroke-linecap:round;stroke-linejoin:round;stroke-miterlimit:4;stroke-dasharray:none;stroke-dashoffset:0;stroke-opacity:1;color-rendering:auto;image-rendering:auto;shape-rendering:auto;text-rendering:auto;enable-background:accumulate" />
    <path
       id="path18"
       d="m 1.8515059,1039.1469 a 0.49883722,0.49878745 0 0 1 7.07e-5,0.7054 0.49883722,0.49878745 0 0 1 -0.7055019,0 0.49883722,0.49878745 0 0 1 7.07e-5,-0.7054 0.49883722,0.49878745 0 0 1 0.7053605,0 z"
       style="opacity:1;fill:#000000;fill-opacity:1;stroke:none;stroke-width:1;stroke-linecap:round;stroke-linejoin:round;stroke-miterlimit:4;stroke-dasharray:none;stroke-opacity:1" />
    <path
       id="path20"
       d="m 22.833507,1029.8045 a 0.50001506,0.49998373 0 0 0 0.0096,0.7084 l 5.280872,5.2805 a 0.50001506,0.49998373 0 1 0 0.707057,-0.707 l -5.280871,-5.2805 a 0.50001506,0.49998373 0 0 0 -0.716673,0 z"
       style="color:#000000;font-style:normal;font-variant:normal;font-weight:normal;font-stretch:normal;font-size:medium;line-height:normal;font-family:sans-serif;text-indent:0;text-align:start;text-decoration:none;text-decoration-line:none;text-decoration-style:solid;text-decoration-color:#000000;letter-spacing:normal;word-spacing:normal;text-transform:none;writing-mode:lr-tb;direction:ltr;baseline-shift:baseline;text-anchor:start;white-space:normal;clip-rule:nonzero;display:inline;overflow:visible;visibility:visible;opacity:1;isolation:auto;mix-blend-mode:normal;color-interpolation:sRGB;color-interpolation-filters:linearRGB;solid-color:#000000;solid-opacity:1;fill:#000000;fill-opacity:1;fill-rule:evenodd;stroke:none;stroke-width:1px;stroke-linecap:round;stroke-linejoin:round;stroke-miterlimit:4;stroke-dasharray:none;stroke-dashoffset:0;stroke-opacity:1;color-rendering:auto;image-rendering:auto;shape-rendering:auto;text-rendering:auto;enable-background:accumulate" />
    <path
       id="path22"
       d="m 21.604571,1029.2715 a 0.49883722,0.49878745 0 0 0 0.705501,0 0.49883722,0.49878745 0 0 0 -7.1e-5,-0.7054 0.49883722,0.49878745 0 0 0 -0.70543,-10e-5 0.49883722,0.49878745 0 0 0 0,0.7055 z"
       style="opacity:1;fill:#000000;fill-opacity:1;stroke:none;stroke-width:1;stroke-linecap:round;stroke-linejoin:round;stroke-miterlimit:4;stroke-dasharray:none;stroke-opacity:1" />
    <path
       id="path24"
       d="m 6.783868,1039.8574 a 0.50001512,0.49998379 0 0 0 0.00962,0.7056 l 1.0495561,1.0495 a 0.50001512,0.49998379 0 1 0 0.7070573,-0.707 l -1.0495561,-1.0495 a 0.50001512,0.49998379 0 0 0 -0.7166734,0 z"
       style="color:#000000;font-style:normal;font-variant:normal;font-weight:normal;font-stretch:normal;font-size:medium;line-height:normal;font-family:sans-serif;text-indent:0;text-align:start;text-decoration:none;text-decoration-line:none;text-decoration-style:solid;text-decoration-color:#000000;letter-spacing:normal;word-spacing:normal;text-transform:none;writing-mode:lr-tb;direction:ltr;baseline-shift:baseline;text-anchor:start;white-space:normal;clip-rule:nonzero;display:inline;overflow:visible;visibility:visible;opacity:1;isolation:auto;mix-blend-mode:normal;color-interpolation:sRGB;color-interpolation-filters:linearRGB;solid-color:#000000;solid-opacity:1;fill:#000000;fill-opacity:1;fill-rule:evenodd;stroke:none;stroke-width:1px;stroke-linecap:round;stroke-linejoin:round;stroke-miterlimit:4;stroke-dasharray:none;stroke-dashoffset:0;stroke-opacity:1;color-rendering:auto;image-rendering:auto;shape-rendering:auto;text-rendering:auto;enable-background:accumulate" />
    <path
       id="path26"
       d="m 22.658156,1024.6911 a 0.50001506,0.49998373 0 0 0 0.0082,0.707 l 5.28087,5.2805 a 0.50001506,0.49998373 0 1 0 0.707058,-0.707 l -5.280871,-5.2805 a 0.50001506,0.49998373 0 0 0 -0.71526,0 z"
       style="color:#000000;font-style:normal;font-variant:normal;font-weight:normal;font-stretch:normal;font-size:medium;line-height:normal;font-family:sans-serif;text-indent:0;text-align:start;text-decoration:none;text-decoration-line:none;text-decoration-style:solid;text-decoration-color:#000000;letter-spacing:normal;word-spacing:normal;text-transform:none;writing-mode:lr-tb;direction:ltr;baseline-shift:baseline;text-anchor:start;white-space:normal;clip-rule:nonzero;display:inline;overflow:visible;visibility:visible;opacity:1;isolation:auto;mix-blend-mode:normal;color-interpolation:sRGB;color-interpolation-filters:linearRGB;solid-color:#000000;solid-opacity:1;fill:#000000;fill-opacity:1;fill-rule:evenodd;stroke:none;stroke-width:1px;stroke-linecap:round;stroke-linejoin:round;stroke-miterlimit:4;stroke-dasharray:none;stroke-dashoffset:0;stroke-opacity:1;color-rendering:auto;image-rendering:auto;shape-rendering:auto;text-rendering:auto;enable-background:accumulate" />
    <path
       id="path28"
       d="m 21.42823,1024.1574 a 0.49883722,0.49878745 0 0 0 0.705502,0 0.49883722,0.49878745 0 0 0 -7e-5,-0.7054 0.49883722,0.49878745 0 0 0 -0.705432,0 0.49883722,0.49878745 0 0 0 0,0.7054 z"
       style="opacity:1;fill:#000000;fill-opacity:1;stroke:none;stroke-width:1;stroke-linecap:round;stroke-linejoin:round;stroke-miterlimit:4;stroke-dasharray:none;stroke-opacity:1" />
    <path
       id="path30"
       d="m 19.128313,1021.1643 a 0.50001512,0.49998379 0 0 0 0.01103,0.707 l 1.048213,1.0481 a 0.50001512,0.49998379 0 1 0 0.707057,-0.707 l -1.048213,-1.0481 a 0.50001512,0.49998379 0 0 0 -0.718088,0 z"
       style="color:#000000;font-style:normal;font-variant:normal;font-weight:normal;font-stretch:normal;font-size:medium;line-height:normal;font-family:sans-serif;text-indent:0;text-align:start;text-decoration:none;text-decoration-line:none;text-decoration-style:solid;text-decoration-color:#000000;letter-spacing:normal;word-spacing:normal;text-transform:none;writing-mode:lr-tb;direction:ltr;baseline-shift:baseline;text-anchor:start;white-space:normal;clip-rule:nonzero;display:inline;overflow:visible;visibility:visible;opacity:1;isolation:auto;mix-blend-mode:normal;color-interpolation:sRGB;color-interpolation-filters:linearRGB;solid-color:#000000;solid-opacity:1;fill:#000000;fill-opacity:1;fill-rule:evenodd;stroke:none;stroke-width:1px;stroke-linecap:round;stroke-linejoin:round;stroke-miterlimit:4;stroke-dasharray:none;stroke-dashoffset:0;stroke-opacity:1;color-rendering:auto;image-rendering:auto;shape-rendering:auto;text-rendering:auto;enable-background:accumulate" />
  </g>
</svg>
