<?xml version="1.0" encoding="UTF-8" standalone="no"?>
<!-- Created with Inkscape (http://www.inkscape.org/) -->

<svg
   xmlns:dc="http://purl.org/dc/elements/1.1/"
   xmlns:cc="http://creativecommons.org/ns#"
   xmlns:rdf="http://www.w3.org/1999/02/22-rdf-syntax-ns#"
   xmlns:svg="http://www.w3.org/2000/svg"
   xmlns="http://www.w3.org/2000/svg"
   xmlns:sodipodi="http://sodipodi.sourceforge.net/DTD/sodipodi-0.dtd"
   xmlns:inkscape="http://www.inkscape.org/namespaces/inkscape"
   width="26.458332mm"
   height="26.458332mm"
   viewBox="0 0 26.458332 26.458332"
   version="1.1"
   id="svg8"
   inkscape:version="0.92.1 r15371"
   sodipodi:docname="noun_Plane_2259236.svg">
  <defs
     id="defs2" />
  <sodipodi:namedview
     id="base"
     pagecolor="#ffffff"
     bordercolor="#666666"
     borderopacity="1.0"
     inkscape:pageopacity="0.0"
     inkscape:pageshadow="2"
     inkscape:zoom="5.6568542"
     inkscape:cx="23.512932"
     inkscape:cy="48.246872"
     inkscape:document-units="mm"
     inkscape:current-layer="layer1"
     showgrid="false"
     inkscape:window-width="1366"
     inkscape:window-height="705"
     inkscape:window-x="-8"
     inkscape:window-y="-8"
     inkscape:window-maximized="1" />
  <metadata
     id="metadata5">
    <rdf:RDF>
      <cc:Work
         rdf:about="">
        <dc:format>image/svg+xml</dc:format>
        <dc:type
           rdf:resource="http://purl.org/dc/dcmitype/StillImage" />
        <dc:title></dc:title>
      </cc:Work>
    </rdf:RDF>
  </metadata>
  <g
     inkscape:label="Layer 1"
     inkscape:groupmode="layer"
     id="layer1"
     transform="translate(-0.37797461,-0.14948716)">
    <path
       style="fill:#000000;stroke:#000000;stroke-width:0.26458332px;stroke-linecap:butt;stroke-linejoin:miter;stroke-opacity:1;fill-opacity:1"
       d="m 24.173938,14.288157 c 0,0 -0.01654,-4.8947916 -0.132291,-5.0932291 -0.115756,-0.1984376 -1.471745,-0.066146 -1.63711,-0.033073 -0.165364,0.033073 -0.595312,2.1828121 -0.810286,2.9930991 -0.214974,0.810286 -0.810287,0.611849 -0.810287,0.611849 0,0 -4.101041,0.148827 -7.209896,0.198437 -3.108854,0.04961 -3.555338,-0.165364 -3.555338,-0.165364 0,0 -6.1680992,-1.422136 -7.1106773,-0.06615 0,0 -1.5544273,1.107947 -1.4552083,1.339457 0.099219,0.23151 0.4630208,0.992188 0.7772135,1.107943 0.3141928,0.11576 2.5300782,0.04961 2.6623698,0.01654 0.1322917,-0.03307 6.3830733,-1.124479 6.8626303,-0.810286 0,0 8.73125,-0.165369 9.095052,-0.09922 0.363802,0.06615 0.942578,2.563151 0.942578,2.563151 0,0 -0.03307,0.281117 1.322917,-0.132295 0,0 -0.214974,-2.348177 -0.03307,-2.414323 0.181901,-0.06615 1.091406,-0.01654 1.091406,-0.01654 z"
       id="path5233"
       inkscape:connector-curvature="0" />
    <path
       style="fill:none;stroke:#000000;stroke-width:0.26499999;stroke-linecap:round;stroke-linejoin:round;stroke-miterlimit:4;stroke-dasharray:none;stroke-opacity:1"
       d="m 2.6434694,13.775527 -2.4143229,0.03307"
       id="path5235"
       inkscape:connector-curvature="0" />
    <path
       style="fill:#000000;stroke:#000000;stroke-width:0.26458332px;stroke-linecap:butt;stroke-linejoin:miter;stroke-opacity:1;fill-opacity:1"
       d="m 4.2249853,15.259721 c 0,0 -0.1520095,0.894518 0.3390982,0.830206 0.4911079,-0.06431 0.2455539,-0.65481 0.2981727,-0.859438 0.052619,-0.204629 -0.6372709,0.02923 -0.6372709,0.02923 z"
       id="path5237"
       inkscape:connector-curvature="0" />
    <path
       style="fill:none;stroke:#000000;stroke-width:0.265;stroke-linecap:round;stroke-linejoin:miter;stroke-opacity:1;stroke-miterlimit:4;stroke-dasharray:none"
       d="m 10.363832,12.903573 0.02339,-0.526187"
       id="path5239"
       inkscape:connector-curvature="0" />
    <path
       style="fill:none;stroke:#000000;stroke-width:0.26458332px;stroke-linecap:round;stroke-linejoin:miter;stroke-opacity:1"
       d="m 15.087821,13.254365 -0.01169,-0.619732"
       id="path5241"
       inkscape:connector-curvature="0" />
    <path
       style="fill:#000000;stroke:#000000;stroke-width:0.26458332px;stroke-linecap:butt;stroke-linejoin:miter;stroke-opacity:1;fill-opacity:1"
       d="m 11.903886,14.83386 c 0,0 -0.28112,-2.38125 -0.09922,-2.546615 0.181901,-0.165364 1.174089,-0.297656 1.256771,-0.23151 0.08268,0.06615 0.760677,2.728515 0.644922,2.761588 -0.115755,0.03307 -1.802474,0.01654 -1.802474,0.01654 z"
       id="path5243"
       inkscape:connector-curvature="0" />
    <path
       style="fill:#000000;stroke:#000000;stroke-width:0.26458332px;stroke-linecap:butt;stroke-linejoin:miter;stroke-opacity:1;fill-opacity:1"
       d="m 11.366451,14.982688 2.579688,-0.03307 0.0083,0.553971 -2.587956,0.03307 z"
       id="path5245"
       inkscape:connector-curvature="0" />
    <path
       style="fill:#000000;fill-opacity:1;stroke:#000000;stroke-width:0.26458332px;stroke-linecap:butt;stroke-linejoin:miter;stroke-opacity:1"
       d="m 11.04946,14.999247 c 0,0 -1.1076825,0.02912 -1.0730209,0.267673 0.034662,0.238553 1.0693569,0.245543 1.0693569,0.245543"
       id="path5247"
       inkscape:connector-curvature="0" />
    <path
       style="fill:#000000;fill-opacity:1;stroke:#000000;stroke-width:0.26458332px;stroke-linecap:butt;stroke-linejoin:miter;stroke-opacity:1"
       d="m 14.272733,14.941347 0.02891,0.574642 0.882106,0.04166 0.391202,0.111307 -0.388607,-0.396875 0.396875,-0.463021 -0.417489,0.1012 z"
       id="path5249"
       inkscape:connector-curvature="0"
       sodipodi:nodetypes="cccccccc" />
    <path
       style="fill:#ffff00;stroke:#ffff00;stroke-width:0.26458332px;stroke-linecap:butt;stroke-linejoin:miter;stroke-opacity:1"
       d="m 11.122538,14.871068 0.0083,0.797884"
       id="path5064"
       inkscape:connector-curvature="0" />
    <path
       style="fill:#ffff00;stroke:#ffff00;stroke-width:0.26458332px;stroke-linecap:butt;stroke-linejoin:miter;stroke-opacity:1"
       d="m 14.128024,14.819391 0.0083,0.818555"
       id="path5064-0"
       inkscape:connector-curvature="0"
       sodipodi:nodetypes="cc" />
    <path
       style="fill:#000000;fill-opacity:1;stroke:#000000;stroke-width:0.26458332px;stroke-linecap:butt;stroke-linejoin:miter;stroke-opacity:1"
       d="m 24.294286,13.253267 c 0,0 1.107682,0.02912 1.073021,0.267673 -0.03466,0.238553 -1.069357,0.245543 -1.069357,0.245543"
       id="path5247-4"
       inkscape:connector-curvature="0" />
    <path
       style="fill:none;stroke:#000000;stroke-width:0.265;stroke-linecap:round;stroke-linejoin:miter;stroke-opacity:1;stroke-miterlimit:4;stroke-dasharray:none"
       d="M 24.570878,13.242672 V 11.231469"
       id="path5098"
       inkscape:connector-curvature="0" />
    <path
       style="fill:none;stroke:#000000;stroke-width:0.26499999;stroke-linecap:round;stroke-linejoin:miter;stroke-miterlimit:4;stroke-dasharray:none;stroke-opacity:1"
       d="m 24.5619,13.512078 v 2.011203"
       id="path5098-5"
       inkscape:connector-curvature="0" />
  </g>
  <style
     id="style4485"
     type="text/css">
	.st0{fill:none;}
</style>
</svg>
