<?xml version="1.0" encoding="UTF-8" standalone="no"?>
<svg
   xmlns:dc="http://purl.org/dc/elements/1.1/"
   xmlns:cc="http://creativecommons.org/ns#"
   xmlns:rdf="http://www.w3.org/1999/02/22-rdf-syntax-ns#"
   xmlns:svg="http://www.w3.org/2000/svg"
   xmlns="http://www.w3.org/2000/svg"
   xmlns:sodipodi="http://sodipodi.sourceforge.net/DTD/sodipodi-0.dtd"
   xmlns:inkscape="http://www.inkscape.org/namespaces/inkscape"
   inkscape:version="1.0 (4035a4fb49, 2020-05-01)"
   sodipodi:docname="noun_plane wheel_1671535.svg"
   id="svg12"
   version="1.1"
   y="0px"
   x="0px"
   viewBox="0 0 100 125"
   data-name="Layer 1">
  <metadata
     id="metadata18">
    <rdf:RDF>
      <cc:Work
         rdf:about="">
        <dc:format>image/svg+xml</dc:format>
        <dc:type
           rdf:resource="http://purl.org/dc/dcmitype/StillImage" />
      </cc:Work>
    </rdf:RDF>
  </metadata>
  <defs
     id="defs16" />
  <sodipodi:namedview
     inkscape:current-layer="svg12"
     inkscape:window-maximized="1"
     inkscape:window-y="-9"
     inkscape:window-x="-9"
     inkscape:cy="64.769473"
     inkscape:cx="16.791943"
     inkscape:zoom="3.0415396"
     showgrid="false"
     id="namedview14"
     inkscape:window-height="1001"
     inkscape:window-width="1920"
     inkscape:pageshadow="2"
     inkscape:pageopacity="0"
     guidetolerance="10"
     gridtolerance="10"
     objecttolerance="10"
     borderopacity="1"
     bordercolor="#666666"
     pagecolor="#ffffff"
     inkscape:document-rotation="0" />
  <title
     id="title2">chassis, wheel, landing, parking, hangar</title>
  <path
     style="stroke-width:1.41504"
     id="path4"
     d="M 66.168495,50.479296 V 43.591182 A 7.1655848,6.9859172 0 0 0 60.436028,36.744983 V 5.8672288 H 54.70356 V 36.605265 H 48.971092 V 5.8672288 H 43.238624 V 36.744983 a 7.1655848,6.9859172 0 0 0 -5.732468,6.846199 v 6.888114 a 38.694158,37.723953 0 1 0 28.662339,0 z M 43.238624,43.591182 a 1.433117,1.3971834 0 0 1 1.433117,-1.397184 h 14.33117 a 1.433117,1.3971834 0 0 1 1.433117,1.397184 v 41.915503 a 8.598702,8.383101 0 0 1 -17.197404,0 z M 51.837326,99.47852 A 14.33117,13.971834 0 0 0 66.168495,85.506685 V 71.674569 a 20.063637,19.560568 0 1 1 -28.662339,0 v 13.832116 a 14.33117,13.971834 0 0 0 14.33117,13.971835 z m 0,18.16338 A 32.96169,32.135219 0 0 1 37.506156,56.584988 v 7.963946 a 25.796105,25.149302 0 1 0 28.662339,0 V 56.584988 A 32.96169,32.135219 0 0 1 51.837326,117.6419 Z" />
  <circle
     id="circle6"
     r="2"
     cy="65"
     cx="41.451698" />
</svg>
